<?xml version="1.0" encoding="utf-8" standalone="no"?>
<!DOCTYPE svg PUBLIC "-//W3C//DTD SVG 1.1//EN"
  "http://www.w3.org/Graphics/SVG/1.1/DTD/svg11.dtd">
<!-- Created with matplotlib (https://matplotlib.org/) -->
<svg height="288pt" version="1.1" viewBox="0 0 432 288" width="432pt" xmlns="http://www.w3.org/2000/svg" xmlns:xlink="http://www.w3.org/1999/xlink">
 <metadata>
  <rdf:RDF xmlns:cc="http://creativecommons.org/ns#" xmlns:dc="http://purl.org/dc/elements/1.1/" xmlns:rdf="http://www.w3.org/1999/02/22-rdf-syntax-ns#">
   <cc:Work>
    <dc:type rdf:resource="http://purl.org/dc/dcmitype/StillImage"/>
    <dc:date>2022-10-21T23:19:39.891835</dc:date>
    <dc:format>image/svg+xml</dc:format>
    <dc:creator>
     <cc:Agent>
      <dc:title>Matplotlib v3.3.4, https://matplotlib.org/</dc:title>
     </cc:Agent>
    </dc:creator>
   </cc:Work>
  </rdf:RDF>
 </metadata>
 <defs>
  <style type="text/css">*{stroke-linecap:butt;stroke-linejoin:round;}</style>
 </defs>
 <g id="figure_1">
  <g id="patch_1">
   <path d="M 0 288 
L 432 288 
L 432 0 
L 0 0 
z
" style="fill:none;"/>
  </g>
  <g id="patch_2">
   <path d="M 112.68 252 
L 330.12 252 
L 330.12 34.56 
L 112.68 34.56 
z
" style="fill:#ffffff;"/>
  </g>
  <g id="pane3d_1">
   <g id="patch_3">
    <path d="M 129.09822 198.386264 
L 200.904009 138.197228 
L 199.90584 51.393878 
L 124.663773 106.302111 
" style="fill:#f2f2f2;opacity:0.5;stroke:#f2f2f2;stroke-linejoin:miter;"/>
   </g>
  </g>
  <g id="pane3d_2">
   <g id="patch_4">
    <path d="M 200.904009 138.197228 
L 316.12668 171.68791 
L 320.238571 81.894718 
L 199.90584 51.393878 
" style="fill:#e6e6e6;opacity:0.5;stroke:#e6e6e6;stroke-linejoin:miter;"/>
   </g>
  </g>
  <g id="pane3d_3">
   <g id="patch_5">
    <path d="M 129.09822 198.386264 
L 251.239879 238.27773 
L 316.12668 171.68791 
L 200.904009 138.197228 
" style="fill:#ececec;opacity:0.5;stroke:#ececec;stroke-linejoin:miter;"/>
   </g>
  </g>
  <g id="axis3d_1">
   <g id="line2d_1">
    <path d="M 129.09822 198.386264 
L 251.239879 238.27773 
" style="fill:none;stroke:#000000;stroke-linecap:square;stroke-width:0.8;"/>
   </g>
   <g id="Line3DCollection_1">
    <path d="M 143.789531 203.184447 
L 214.817017 142.24119 
L 214.408933 55.069989 
" style="fill:none;stroke:#b0b0b0;stroke-width:0.8;"/>
    <path d="M 168.445374 211.237045 
L 238.133429 149.018351 
L 238.730825 61.23488 
" style="fill:none;stroke:#b0b0b0;stroke-width:0.8;"/>
    <path d="M 193.642666 219.46648 
L 261.918941 155.93186 
L 263.56346 67.529229 
" style="fill:none;stroke:#b0b0b0;stroke-width:0.8;"/>
    <path d="M 219.399439 227.878643 
L 286.187853 162.985875 
L 288.923094 73.957157 
" style="fill:none;stroke:#b0b0b0;stroke-width:0.8;"/>
    <path d="M 245.734538 236.479686 
L 310.955054 170.184722 
L 314.826686 80.522962 
" style="fill:none;stroke:#b0b0b0;stroke-width:0.8;"/>
   </g>
   <g id="xtick_1">
    <g id="line2d_2">
     <path d="M 144.408196 202.653617 
L 142.549537 204.248391 
" style="fill:none;stroke:#000000;stroke-linecap:square;stroke-width:0.8;"/>
    </g>
    <g id="text_1">
     <!-- −40 -->
     <g transform="translate(125.710785 226.568474)scale(0.1 -0.1)">
      <defs>
       <path d="M 10.59375 35.5 
L 73.1875 35.5 
L 73.1875 27.203125 
L 10.59375 27.203125 
z
" id="DejaVuSans-8722"/>
       <path d="M 37.796875 64.3125 
L 12.890625 25.390625 
L 37.796875 25.390625 
z
M 35.203125 72.90625 
L 47.609375 72.90625 
L 47.609375 25.390625 
L 58.015625 25.390625 
L 58.015625 17.1875 
L 47.609375 17.1875 
L 47.609375 0 
L 37.796875 0 
L 37.796875 17.1875 
L 4.890625 17.1875 
L 4.890625 26.703125 
z
" id="DejaVuSans-52"/>
       <path d="M 31.78125 66.40625 
Q 24.171875 66.40625 20.328125 58.90625 
Q 16.5 51.421875 16.5 36.375 
Q 16.5 21.390625 20.328125 13.890625 
Q 24.171875 6.390625 31.78125 6.390625 
Q 39.453125 6.390625 43.28125 13.890625 
Q 47.125 21.390625 47.125 36.375 
Q 47.125 51.421875 43.28125 58.90625 
Q 39.453125 66.40625 31.78125 66.40625 
z
M 31.78125 74.21875 
Q 44.046875 74.21875 50.515625 64.515625 
Q 56.984375 54.828125 56.984375 36.375 
Q 56.984375 17.96875 50.515625 8.265625 
Q 44.046875 -1.421875 31.78125 -1.421875 
Q 19.53125 -1.421875 13.0625 8.265625 
Q 6.59375 17.96875 6.59375 36.375 
Q 6.59375 54.828125 13.0625 64.515625 
Q 19.53125 74.21875 31.78125 74.21875 
z
" id="DejaVuSans-48"/>
      </defs>
      <use xlink:href="#DejaVuSans-8722"/>
      <use x="83.789062" xlink:href="#DejaVuSans-52"/>
      <use x="147.412109" xlink:href="#DejaVuSans-48"/>
     </g>
    </g>
   </g>
   <g id="xtick_2">
    <g id="line2d_3">
     <path d="M 169.05291 210.694627 
L 167.227659 212.324242 
" style="fill:none;stroke:#000000;stroke-linecap:square;stroke-width:0.8;"/>
    </g>
    <g id="text_2">
     <!-- −30 -->
     <g transform="translate(150.398361 234.830493)scale(0.1 -0.1)">
      <defs>
       <path d="M 40.578125 39.3125 
Q 47.65625 37.796875 51.625 33 
Q 55.609375 28.21875 55.609375 21.1875 
Q 55.609375 10.40625 48.1875 4.484375 
Q 40.765625 -1.421875 27.09375 -1.421875 
Q 22.515625 -1.421875 17.65625 -0.515625 
Q 12.796875 0.390625 7.625 2.203125 
L 7.625 11.71875 
Q 11.71875 9.328125 16.59375 8.109375 
Q 21.484375 6.890625 26.8125 6.890625 
Q 36.078125 6.890625 40.9375 10.546875 
Q 45.796875 14.203125 45.796875 21.1875 
Q 45.796875 27.640625 41.28125 31.265625 
Q 36.765625 34.90625 28.71875 34.90625 
L 20.21875 34.90625 
L 20.21875 43.015625 
L 29.109375 43.015625 
Q 36.375 43.015625 40.234375 45.921875 
Q 44.09375 48.828125 44.09375 54.296875 
Q 44.09375 59.90625 40.109375 62.90625 
Q 36.140625 65.921875 28.71875 65.921875 
Q 24.65625 65.921875 20.015625 65.03125 
Q 15.375 64.15625 9.8125 62.3125 
L 9.8125 71.09375 
Q 15.4375 72.65625 20.34375 73.4375 
Q 25.25 74.21875 29.59375 74.21875 
Q 40.828125 74.21875 47.359375 69.109375 
Q 53.90625 64.015625 53.90625 55.328125 
Q 53.90625 49.265625 50.4375 45.09375 
Q 46.96875 40.921875 40.578125 39.3125 
z
" id="DejaVuSans-51"/>
      </defs>
      <use xlink:href="#DejaVuSans-8722"/>
      <use x="83.789062" xlink:href="#DejaVuSans-51"/>
      <use x="147.412109" xlink:href="#DejaVuSans-48"/>
     </g>
    </g>
   </g>
   <g id="xtick_3">
    <g id="line2d_4">
     <path d="M 194.238431 218.912089 
L 192.448513 220.577701 
" style="fill:none;stroke:#000000;stroke-linecap:square;stroke-width:0.8;"/>
    </g>
    <g id="text_3">
     <!-- −20 -->
     <g transform="translate(175.630614 243.274796)scale(0.1 -0.1)">
      <defs>
       <path d="M 19.1875 8.296875 
L 53.609375 8.296875 
L 53.609375 0 
L 7.328125 0 
L 7.328125 8.296875 
Q 12.9375 14.109375 22.625 23.890625 
Q 32.328125 33.6875 34.8125 36.53125 
Q 39.546875 41.84375 41.421875 45.53125 
Q 43.3125 49.21875 43.3125 52.78125 
Q 43.3125 58.59375 39.234375 62.25 
Q 35.15625 65.921875 28.609375 65.921875 
Q 23.96875 65.921875 18.8125 64.3125 
Q 13.671875 62.703125 7.8125 59.421875 
L 7.8125 69.390625 
Q 13.765625 71.78125 18.9375 73 
Q 24.125 74.21875 28.421875 74.21875 
Q 39.75 74.21875 46.484375 68.546875 
Q 53.21875 62.890625 53.21875 53.421875 
Q 53.21875 48.921875 51.53125 44.890625 
Q 49.859375 40.875 45.40625 35.40625 
Q 44.1875 33.984375 37.640625 27.21875 
Q 31.109375 20.453125 19.1875 8.296875 
z
" id="DejaVuSans-50"/>
      </defs>
      <use xlink:href="#DejaVuSans-8722"/>
      <use x="83.789062" xlink:href="#DejaVuSans-50"/>
      <use x="147.412109" xlink:href="#DejaVuSans-48"/>
     </g>
    </g>
   </g>
   <g id="xtick_4">
    <g id="line2d_5">
     <path d="M 219.98276 227.311878 
L 218.230203 229.014693 
" style="fill:none;stroke:#000000;stroke-linecap:square;stroke-width:0.8;"/>
    </g>
    <g id="text_4">
     <!-- −10 -->
     <g transform="translate(201.425769 251.907482)scale(0.1 -0.1)">
      <defs>
       <path d="M 12.40625 8.296875 
L 28.515625 8.296875 
L 28.515625 63.921875 
L 10.984375 60.40625 
L 10.984375 69.390625 
L 28.421875 72.90625 
L 38.28125 72.90625 
L 38.28125 8.296875 
L 54.390625 8.296875 
L 54.390625 0 
L 12.40625 0 
z
" id="DejaVuSans-49"/>
      </defs>
      <use xlink:href="#DejaVuSans-8722"/>
      <use x="83.789062" xlink:href="#DejaVuSans-49"/>
      <use x="147.412109" xlink:href="#DejaVuSans-48"/>
     </g>
    </g>
   </g>
   <g id="xtick_5">
    <g id="line2d_6">
     <path d="M 246.304702 235.900129 
L 244.591646 237.641407 
" style="fill:none;stroke:#000000;stroke-linecap:square;stroke-width:0.8;"/>
    </g>
    <g id="text_5">
     <!-- 0 -->
     <g transform="translate(235.17397 260.734926)scale(0.1 -0.1)">
      <use xlink:href="#DejaVuSans-48"/>
     </g>
    </g>
   </g>
  </g>
  <g id="axis3d_2">
   <g id="line2d_7">
    <path d="M 316.12668 171.68791 
L 251.239879 238.27773 
" style="fill:none;stroke:#000000;stroke-linecap:square;stroke-width:0.8;"/>
   </g>
   <g id="Line3DCollection_2">
    <path d="M 134.677097 98.994843 
L 138.622826 190.402551 
L 259.879736 229.411112 
" style="fill:none;stroke:#b0b0b0;stroke-width:0.8;"/>
    <path d="M 150.337121 87.566871 
L 153.537823 177.900504 
L 273.38892 215.547366 
" style="fill:none;stroke:#b0b0b0;stroke-width:0.8;"/>
    <path d="M 165.445364 76.541563 
L 167.949636 165.820237 
L 286.418814 202.175489 
" style="fill:none;stroke:#b0b0b0;stroke-width:0.8;"/>
    <path d="M 180.030483 65.898008 
L 181.883306 154.140758 
L 298.994481 189.269761 
" style="fill:none;stroke:#b0b0b0;stroke-width:0.8;"/>
    <path d="M 194.119185 55.616715 
L 195.362241 142.842448 
L 311.139265 176.806224 
" style="fill:none;stroke:#b0b0b0;stroke-width:0.8;"/>
   </g>
   <g id="xtick_6">
    <g id="line2d_8">
     <path d="M 258.858185 229.082477 
L 261.925463 230.069226 
" style="fill:none;stroke:#000000;stroke-linecap:square;stroke-width:0.8;"/>
    </g>
    <g id="text_6">
     <!-- −140 -->
     <g transform="translate(258.960396 250.357409)scale(0.1 -0.1)">
      <use xlink:href="#DejaVuSans-8722"/>
      <use x="83.789062" xlink:href="#DejaVuSans-49"/>
      <use x="147.412109" xlink:href="#DejaVuSans-52"/>
      <use x="211.035156" xlink:href="#DejaVuSans-48"/>
     </g>
    </g>
   </g>
   <g id="xtick_7">
    <g id="line2d_9">
     <path d="M 272.380132 215.230492 
L 275.409043 216.181914 
" style="fill:none;stroke:#000000;stroke-linecap:square;stroke-width:0.8;"/>
    </g>
    <g id="text_7">
     <!-- −130 -->
     <g transform="translate(272.24766 236.242509)scale(0.1 -0.1)">
      <use xlink:href="#DejaVuSans-8722"/>
      <use x="83.789062" xlink:href="#DejaVuSans-49"/>
      <use x="147.412109" xlink:href="#DejaVuSans-51"/>
      <use x="211.035156" xlink:href="#DejaVuSans-48"/>
     </g>
    </g>
   </g>
   <g id="xtick_8">
    <g id="line2d_10">
     <path d="M 285.422534 201.869755 
L 288.413845 202.787714 
" style="fill:none;stroke:#000000;stroke-linecap:square;stroke-width:0.8;"/>
    </g>
    <g id="text_8">
     <!-- −120 -->
     <g transform="translate(285.063177 222.628741)scale(0.1 -0.1)">
      <use xlink:href="#DejaVuSans-8722"/>
      <use x="83.789062" xlink:href="#DejaVuSans-49"/>
      <use x="147.412109" xlink:href="#DejaVuSans-50"/>
      <use x="211.035156" xlink:href="#DejaVuSans-48"/>
     </g>
    </g>
   </g>
   <g id="xtick_9">
    <g id="line2d_11">
     <path d="M 298.010457 188.97459 
L 300.964927 189.860821 
" style="fill:none;stroke:#000000;stroke-linecap:square;stroke-width:0.8;"/>
    </g>
    <g id="text_9">
     <!-- −110 -->
     <g transform="translate(297.431631 209.489882)scale(0.1 -0.1)">
      <use xlink:href="#DejaVuSans-8722"/>
      <use x="83.789062" xlink:href="#DejaVuSans-49"/>
      <use x="147.412109" xlink:href="#DejaVuSans-49"/>
      <use x="211.035156" xlink:href="#DejaVuSans-48"/>
     </g>
    </g>
   </g>
   <g id="xtick_10">
    <g id="line2d_12">
     <path d="M 310.16725 176.521078 
L 313.085626 177.377199 
" style="fill:none;stroke:#000000;stroke-linecap:square;stroke-width:0.8;"/>
    </g>
    <g id="text_10">
     <!-- −100 -->
     <g transform="translate(309.376014 196.801508)scale(0.1 -0.1)">
      <use xlink:href="#DejaVuSans-8722"/>
      <use x="83.789062" xlink:href="#DejaVuSans-49"/>
      <use x="147.412109" xlink:href="#DejaVuSans-48"/>
      <use x="211.035156" xlink:href="#DejaVuSans-48"/>
     </g>
    </g>
   </g>
  </g>
  <g id="axis3d_3">
   <g id="line2d_13">
    <path d="M 316.12668 171.68791 
L 320.238571 81.894718 
" style="fill:none;stroke:#000000;stroke-linecap:square;stroke-width:0.8;"/>
   </g>
   <g id="Line3DCollection_3">
    <path d="M 316.618685 160.943782 
L 200.784352 127.791529 
L 128.568407 187.384358 
" style="fill:none;stroke:#b0b0b0;stroke-width:0.8;"/>
    <path d="M 317.456389 142.650454 
L 200.580758 110.086522 
L 127.665837 168.641917 
" style="fill:none;stroke:#b0b0b0;stroke-width:0.8;"/>
    <path d="M 318.309442 124.021956 
L 200.373614 92.072773 
L 126.746094 149.542844 
" style="fill:none;stroke:#b0b0b0;stroke-width:0.8;"/>
    <path d="M 319.17827 105.048992 
L 200.162827 73.742135 
L 125.808681 130.076863 
" style="fill:none;stroke:#b0b0b0;stroke-width:0.8;"/>
    <path d="M 320.063312 85.721918 
L 199.948298 55.086173 
L 124.853085 110.233298 
" style="fill:none;stroke:#b0b0b0;stroke-width:0.8;"/>
   </g>
   <g id="xtick_11">
    <g id="line2d_14">
     <path d="M 315.646272 160.665474 
L 318.565836 161.501064 
" style="fill:none;stroke:#000000;stroke-linecap:square;stroke-width:0.8;"/>
    </g>
    <g id="text_11">
     <!-- 210 -->
     <g transform="translate(325.406912 165.964675)scale(0.1 -0.1)">
      <use xlink:href="#DejaVuSans-50"/>
      <use x="63.623047" xlink:href="#DejaVuSans-49"/>
      <use x="127.246094" xlink:href="#DejaVuSans-48"/>
     </g>
    </g>
   </g>
   <g id="xtick_12">
    <g id="line2d_15">
     <path d="M 316.474816 142.376968 
L 319.421904 143.198087 
" style="fill:none;stroke:#000000;stroke-linecap:square;stroke-width:0.8;"/>
    </g>
    <g id="text_12">
     <!-- 220 -->
     <g transform="translate(326.407296 147.716083)scale(0.1 -0.1)">
      <use xlink:href="#DejaVuSans-50"/>
      <use x="63.623047" xlink:href="#DejaVuSans-50"/>
      <use x="127.246094" xlink:href="#DejaVuSans-48"/>
     </g>
    </g>
   </g>
   <g id="xtick_13">
    <g id="line2d_16">
     <path d="M 317.318535 123.753517 
L 320.29367 124.55949 
" style="fill:none;stroke:#000000;stroke-linecap:square;stroke-width:0.8;"/>
    </g>
    <g id="text_13">
     <!-- 230 -->
     <g transform="translate(327.42594 129.134396)scale(0.1 -0.1)">
      <use xlink:href="#DejaVuSans-50"/>
      <use x="63.623047" xlink:href="#DejaVuSans-51"/>
      <use x="127.246094" xlink:href="#DejaVuSans-48"/>
     </g>
    </g>
   </g>
   <g id="xtick_14">
    <g id="line2d_17">
     <path d="M 318.177849 104.785833 
L 321.18157 105.575958 
" style="fill:none;stroke:#000000;stroke-linecap:square;stroke-width:0.8;"/>
    </g>
    <g id="text_14">
     <!-- 240 -->
     <g transform="translate(328.463349 110.21041)scale(0.1 -0.1)">
      <use xlink:href="#DejaVuSans-50"/>
      <use x="63.623047" xlink:href="#DejaVuSans-52"/>
      <use x="127.246094" xlink:href="#DejaVuSans-48"/>
     </g>
    </g>
   </g>
   <g id="xtick_15">
    <g id="line2d_18">
     <path d="M 319.053194 85.464284 
L 322.086055 86.237825 
" style="fill:none;stroke:#000000;stroke-linecap:square;stroke-width:0.8;"/>
    </g>
    <g id="text_15">
     <!-- 250 -->
     <g transform="translate(329.520046 90.934578)scale(0.1 -0.1)">
      <defs>
       <path d="M 10.796875 72.90625 
L 49.515625 72.90625 
L 49.515625 64.59375 
L 19.828125 64.59375 
L 19.828125 46.734375 
Q 21.96875 47.46875 24.109375 47.828125 
Q 26.265625 48.1875 28.421875 48.1875 
Q 40.625 48.1875 47.75 41.5 
Q 54.890625 34.8125 54.890625 23.390625 
Q 54.890625 11.625 47.5625 5.09375 
Q 40.234375 -1.421875 26.90625 -1.421875 
Q 22.3125 -1.421875 17.546875 -0.640625 
Q 12.796875 0.140625 7.71875 1.703125 
L 7.71875 11.625 
Q 12.109375 9.234375 16.796875 8.0625 
Q 21.484375 6.890625 26.703125 6.890625 
Q 35.15625 6.890625 40.078125 11.328125 
Q 45.015625 15.765625 45.015625 23.390625 
Q 45.015625 31 40.078125 35.4375 
Q 35.15625 39.890625 26.703125 39.890625 
Q 22.75 39.890625 18.8125 39.015625 
Q 14.890625 38.140625 10.796875 36.28125 
z
" id="DejaVuSans-53"/>
      </defs>
      <use xlink:href="#DejaVuSans-50"/>
      <use x="63.623047" xlink:href="#DejaVuSans-53"/>
      <use x="127.246094" xlink:href="#DejaVuSans-48"/>
     </g>
    </g>
   </g>
  </g>
  <g id="axes_1">
   <g id="line2d_19">
    <path clip-path="url(#pd68e0adc1d)" d="M 244.396263 144.903302 
L 243.091073 146.071122 
L 243.074224 147.895147 
L 241.765713 149.069032 
L 241.750042 150.891839 
L 239.304264 150.180098 
L 237.989598 151.357629 
L 235.546055 150.644927 
L 235.535989 152.464028 
L 232.889833 154.830421 
L 235.336798 155.549266 
L 235.346729 153.724817 
L 237.801001 154.44391 
L 237.813181 152.614914 
L 239.135215 151.428895 
L 241.593978 152.145763 
L 242.90863 150.961353 
L 247.835774 152.394634 
L 247.857045 150.562711 
L 242.589583 155.33646 
L 242.639628 149.795494 
L 240.152824 149.073237 
L 241.482977 147.882436 
L 239.004291 147.164188 
L 238.99095 149.009873 
L 241.467364 149.729399 
L 240.138398 150.922318 
L 237.659086 150.200295 
L 236.322601 151.394849 
L 236.311671 153.241392 
L 237.646959 152.044731 
L 235.175099 151.322946 
L 236.50865 150.13291 
L 236.497611 151.97063 
L 238.96434 152.691189 
L 234.96204 156.287489 
L 232.486681 155.559413 
L 232.501568 151.868028 
L 234.981469 152.593554 
L 234.991211 150.741516 
L 236.33355 149.544931 
L 236.34452 147.69163 
L 237.683408 146.501322 
L 237.695602 144.646766 
L 239.031046 143.462715 
L 236.553009 142.748541 
L 236.564149 140.89403 
L 239.044461 141.60691 
L 237.707818 142.788817 
L 237.720057 140.927466 
L 232.75428 139.500854 
L 234.097926 138.326046 
L 231.62573 137.617447 
L 231.612478 141.324672 
L 229.149951 140.614969 
L 227.803004 141.789139 
L 227.809321 138.080222 
L 225.344607 137.372137 
L 225.346443 133.652283 
L 223.987041 134.819457 
L 223.986719 132.95226 
L 226.461064 133.658869 
L 226.459122 135.527384 
L 227.815661 134.357756 
L 227.818839 132.491419 
L 230.520283 130.168647 
L 230.514657 132.03064 
L 232.983323 132.73271 
L 230.290069 135.064711 
L 230.295515 133.197058 
L 228.940624 134.366968 
L 228.944847 132.493704 
L 231.431925 133.201971 
L 230.073973 134.376249 
L 232.569235 135.088499 
L 235.274561 132.739076 
L 235.284608 130.861909 
L 233.933083 132.032363 
L 231.438446 131.323933 
L 231.444979 129.44244 
L 233.941921 130.14953 
L 231.222157 132.498325 
L 231.2158 134.3856 
L 233.721619 135.100527 
L 235.07969 133.919342 
L 237.587875 134.633278 
L 238.938227 133.45373 
L 236.433005 132.742294 
L 237.781588 131.569361 
L 237.806359 127.801978 
L 232.808442 126.393932 
L 231.451524 127.557481 
L 231.458082 125.669047 
L 232.816236 124.50773 
L 230.322896 123.807285 
L 230.317399 125.692139 
L 227.831612 124.991826 
L 226.468867 126.150467 
L 226.466911 128.032738 
L 225.100652 129.197656 
L 222.616602 128.492577 
L 221.242662 129.659105 
L 216.284529 128.248489 
L 216.277124 126.365806 
L 213.803642 125.664073 
L 213.813308 127.545413 
L 216.573571 125.231118 
L 216.566465 123.354205 
L 215.187461 124.507126 
L 215.179064 122.624552 
L 213.793958 123.779273 
L 216.269707 124.479658 
L 217.651952 123.322495 
L 217.658089 125.206415 
L 220.133936 125.907181 
L 222.875735 123.595624 
L 220.405613 122.899725 
L 221.772223 121.752385 
L 221.774564 123.626219 
L 223.135195 122.480651 
L 223.134099 120.609019 
L 220.674841 119.919383 
L 219.310131 121.060354 
L 219.314712 122.932856 
L 223.391 119.515163 
L 223.390141 117.649248 
L 220.941653 116.965791 
L 220.938571 115.097817 
L 222.293246 113.973157 
L 222.291392 112.103996 
L 219.846377 111.426961 
L 217.124265 113.671065 
L 217.117704 111.795422 
L 218.482356 110.673651 
L 220.932392 111.351683 
L 223.642006 109.115059 
L 218.758231 107.769712 
L 218.753183 105.898659 
L 216.316706 105.229418 
L 216.323948 107.099133 
L 217.680118 105.993499 
L 217.704036 113.42998 
L 219.050679 112.319407 
L 214.22551 110.98101 
L 215.573007 109.87876 
L 215.565171 108.031591 
L 218.2489 105.842585 
L 220.653018 106.503022 
L 221.985375 105.411838 
L 221.987468 107.253856 
L 223.314139 106.164216 
L 223.313229 104.324341 
L 225.716855 104.981666 
L 224.391712 106.071391 
L 224.391664 107.914708 
L 225.715629 106.822837 
L 225.714406 108.660737 
L 228.118669 109.321998 
L 228.115311 111.157923 
L 229.429769 110.063249 
L 229.434288 108.22945 
L 224.636075 106.912727 
L 221.989557 109.0926 
L 219.592402 108.431807 
L 219.588184 106.594355 
L 216.915936 108.780247 
L 216.922549 110.621975 
L 214.52492 109.958058 
L 214.516179 108.117624 
L 212.121331 107.456358 
L 210.773031 108.550376 
L 208.380414 107.888224 
L 208.408782 111.564923 
L 207.055698 112.664679 
L 207.071072 114.500252 
L 204.687019 113.833345 
L 203.327937 114.936695 
L 203.365276 118.59973 
L 204.721884 117.492161 
L 207.101739 118.16162 
L 205.747768 119.271454 
L 205.780781 122.924026 
L 204.424696 124.041813 
L 204.406969 122.215058 
L 203.045048 123.334534 
L 203.082955 126.988983 
L 205.4693 127.670468 
L 206.826092 126.544507 
L 206.857192 130.184327 
L 204.477689 129.502636 
L 204.512861 133.127066 
L 206.888182 133.811242 
L 206.872701 131.999393 
L 208.221241 130.871031 
L 210.600865 131.553059 
L 210.588675 129.738806 
L 212.975261 130.42098 
L 212.965159 128.602253 
L 210.269249 130.863765 
L 207.875223 130.178218 
L 207.889881 131.999836 
L 205.502866 131.314439 
L 202.780429 133.586167 
L 205.172755 134.276225 
L 205.189862 136.09874 
L 202.799651 135.407429 
L 202.81884 137.225446 
L 200.435628 136.534304 
L 200.456882 138.347845 
L 201.819304 137.206214 
L 204.197786 137.89626 
L 204.215667 139.705772 
L 202.857114 140.85178 
L 200.478098 140.158162 
L 197.741905 142.45713 
L 197.765591 144.268305 
L 200.147769 144.967868 
L 200.169317 146.777048 
L 197.789236 146.076257 
L 197.812839 147.880994 
L 195.439709 147.180414 
L 196.808957 146.025262 
L 196.833344 147.823569 
L 194.092736 150.141799 
L 194.17317 155.529606 
L 192.799714 156.700597 
L 192.827694 158.492149 
L 194.199887 157.31918 
L 196.565233 158.02817 
L 193.821399 160.382872 
L 193.848522 162.174417 
L 192.470907 163.359728 
L 190.099855 162.642322 
L 188.71497 163.829219 
L 188.651385 160.237405 
L 191.029212 160.954842 
L 191.058943 162.753554 
L 193.439562 163.473672 
L 193.467146 165.270376 
L 194.846818 164.078605 
L 197.227602 164.798957 
L 197.251767 166.591676 
L 198.622888 165.399527 
L 198.599986 163.608781 
L 196.221824 162.890865 
L 196.121406 155.700693 
L 193.356514 158.064242 
L 195.748361 158.782205 
L 195.696988 155.157283 
L 190.909753 153.727737 
L 189.514994 154.909064 
L 184.742209 153.48054 
L 181.927835 155.845539 
L 184.317012 156.563954 
L 184.35301 158.380454 
L 182.942557 159.57353 
L 182.979821 161.388793 
L 185.372349 162.113631 
L 185.407431 163.926852 
L 182.582625 166.338415 
L 180.186941 165.607361 
L 178.764609 166.816849 
L 188.387943 169.760317 
L 188.420549 171.580008 
L 179.855266 178.999147 
L 182.287753 179.755664 
L 182.326295 181.585465 
L 183.762154 180.333522 
L 186.194854 181.09023 
L 186.124851 177.428883 
L 184.688963 178.679376 
L 184.652483 176.841598 
L 187.522014 174.349083 
L 187.488228 172.512056 
L 188.916871 171.274367 
L 188.851852 167.594335 
L 191.297411 168.339915 
L 192.72105 167.108081 
L 195.169007 167.852633 
L 195.195763 169.694773 
L 196.610334 168.462556 
L 199.05846 169.207341 
L 197.646669 170.442158 
L 197.671156 172.282175 
L 194.835435 174.768942 
L 194.808249 172.924771 
L 190.513135 176.681474 
L 192.983262 177.443693 
L 192.954159 175.588563 
L 190.481773 174.827616 
L 190.450352 172.970316 
L 187.980977 172.212265 
L 187.94724 170.352797 
L 183.019763 168.844092 
L 182.981469 166.983742 
L 181.525633 168.228342 
L 179.06474 167.475029 
L 177.600972 168.721366 
L 180.06465 169.477343 
L 180.10579 171.341948 
L 177.644355 170.584683 
L 176.176849 171.83756 
L 173.717893 171.079237 
L 173.764869 172.939936 
L 171.313383 172.181949 
L 172.784963 170.932292 
L 175.233699 171.687613 
L 176.697366 170.439693 
L 176.741381 172.292728 
L 175.279147 173.542753 
L 180.187841 175.060782 
L 180.228753 176.91503 
L 178.768328 178.176925 
L 178.81059 180.029832 
L 177.346439 181.298283 
L 177.30274 179.443281 
L 174.842466 178.6768 
L 176.310827 177.413145 
L 176.266251 175.558066 
L 171.362493 174.037922 
L 169.887175 175.294101 
L 172.339189 176.056045 
L 170.861411 177.319358 
L 170.811608 175.457883 
L 172.290848 174.196685 
L 177.215099 175.722906 
L 175.74142 176.989518 
L 175.696022 175.121998 
L 180.651577 176.657641 
L 180.61064 174.784035 
L 182.081588 173.51625 
L 187.057403 175.050445 
L 187.092318 176.924501 
L 189.585976 177.69538 
L 188.125042 178.973542 
L 190.626969 179.748847 
L 192.085015 178.467922 
L 192.115258 180.341056 
L 190.658635 181.624122 
L 198.189974 183.964021 
L 198.214593 185.839652 
L 196.762929 187.13784 
L 196.736895 185.260069 
L 194.21808 184.475608 
L 192.756837 185.773495 
L 190.240555 184.98792 
L 187.296407 187.592058 
L 184.779751 186.802535 
L 180.314782 190.735501 
L 180.356619 192.622266 
L 182.879696 193.421687 
L 182.840216 191.533617 
L 185.371185 192.333484 
L 189.81855 188.383303 
L 194.879368 189.970978 
L 194.851348 188.081878 
L 197.780691 185.464995 
L 200.315819 186.254406 
L 201.769611 184.950185 
L 204.307282 185.738472 
L 202.856483 187.04554 
L 202.836061 185.15456 
L 204.288273 183.849663 
L 204.250146 180.061269 
L 206.800555 180.84732 
L 206.817231 182.744641 
L 211.92999 184.32457 
L 210.485477 185.635872 
L 207.923245 184.842172 
L 207.938885 186.739394 
L 206.487474 188.054766 
L 206.504496 189.950554 
L 205.049232 191.272889 
L 207.612719 192.075028 
L 206.155219 193.405097 
L 208.727427 194.211934 
L 207.267691 195.549805 
L 207.284079 197.451141 
L 208.742386 196.111089 
L 208.757317 198.006607 
L 207.300435 199.34883 
L 207.31676 201.242882 
L 202.186507 199.617221 
L 200.719614 200.960578 
L 205.855991 202.592171 
L 205.873715 204.484749 
L 203.305139 203.666752 
L 203.325268 205.554408 
L 205.891405 206.373701 
L 211.691421 200.988741 
L 214.250948 201.798002 
L 215.684813 200.46099 
L 220.814557 202.078969 
L 219.38685 203.42185 
L 216.816085 202.609036 
L 216.808907 200.726051 
L 211.67938 199.108336 
L 214.550808 196.449213 
L 219.668073 198.055268 
L 221.089919 196.727103 
L 221.092999 198.603699 
L 218.537058 197.801406 
L 218.553493 203.406089 
L 219.967887 202.077163 
L 222.513559 202.880385 
L 222.516997 206.59759 
L 223.920648 205.266398 
L 226.464006 206.070991 
L 227.859618 204.741679 
L 227.86293 202.887715 
L 235.524178 205.299556 
L 234.136468 206.63546 
L 234.155025 202.90531 
L 239.306309 204.522704 
L 239.320528 202.649776 
L 240.705867 201.314343 
L 240.721403 199.439971 
L 251.0989 202.674054 
L 251.073413 204.553556 
L 248.473022 203.741095 
L 248.450083 205.615742 
L 249.819679 204.274265 
L 247.230636 203.465228 
L 247.208961 205.332946 
L 249.795527 206.143252 
L 251.158944 204.804509 
L 253.74797 205.613662 
L 253.720141 207.478285 
L 256.312324 208.290466 
L 257.663253 206.948624 
L 260.257884 207.759651 
L 258.91016 209.104418 
L 261.513667 209.920146 
L 260.164303 211.27272 
L 262.776744 212.093192 
L 262.85008 208.346071 
L 264.19863 206.994738 
L 264.16071 208.867978 
L 261.548993 208.051732 
L 261.619848 204.304232 
L 259.008797 203.492316 
L 254.925168 207.536919 
L 257.545978 208.357718 
L 257.577798 206.472227 
L 256.208684 207.831108 
L 256.239307 205.939855 
L 257.609678 204.583119 
L 249.749288 202.133873 
L 251.124435 200.790966 
L 251.150019 198.904281 
L 252.521447 197.568381 
L 252.494602 199.452923 
L 249.892411 198.645965 
L 249.868121 200.525632 
L 251.235288 199.193209 
L 251.209792 201.067188 
L 248.621444 200.262332 
L 251.344896 197.613395 
L 251.395954 193.872906 
L 248.814617 193.078103 
L 248.837751 191.203837 
L 247.471578 192.516706 
L 247.515468 188.753237 
L 248.88415 187.444655 
L 248.860929 189.326024 
L 246.280272 188.535523 
L 244.90969 189.843405 
L 244.948714 186.075398 
L 242.365592 185.286377 
L 239.598151 187.901966 
L 239.583654 189.79077 
L 237.002336 188.996459 
L 238.390405 187.687002 
L 238.417077 183.912752 
L 237.026417 185.217878 
L 234.445807 184.427918 
L 233.046971 185.734908 
L 235.630721 186.527729 
L 235.609251 190.310648 
L 234.211121 191.629596 
L 236.798736 192.429673 
L 236.822542 188.639779 
L 235.419862 189.962062 
L 235.441113 186.15326 
L 232.840369 185.355573 
L 234.248877 184.040586 
L 234.239411 185.943275 
L 232.832233 187.260464 
L 232.816009 191.059331 
L 230.22844 190.259421 
L 230.234065 188.363123 
L 227.400661 191.010488 
L 224.810006 190.207835 
L 226.23243 188.88466 
L 226.230622 190.78182 
L 224.809555 192.107179 
L 222.227067 191.30497 
L 222.225048 189.406947 
L 220.794302 190.732025 
L 225.976203 192.341419 
L 225.971499 198.039052 
L 220.804459 196.421756 
L 220.807831 198.311093 
L 217.941724 200.993169 
L 217.947845 202.883197 
L 220.529832 203.699467 
L 226.223424 198.334375 
L 226.221633 200.213544 
L 229.035002 197.555739 
L 231.601528 198.357496 
L 232.997538 197.032876 
L 233.005738 195.158797 
L 234.398037 193.841052 
L 231.835265 193.046318 
L 231.828193 194.916997 
L 233.217289 193.60471 
L 228.11934 192.023521 
L 228.115791 193.886028 
L 229.50473 192.581972 
L 229.509576 190.721562 
L 232.275229 188.131524 
L 232.290093 184.408647 
L 233.668107 183.124724 
L 233.676836 181.26017 
L 232.297545 182.541975 
L 234.841814 183.319485 
L 233.46065 184.608644 
L 233.469232 182.735047 
L 232.081833 184.026684 
L 224.440027 181.686379 
L 224.440122 179.811 
L 219.368283 178.261795 
L 219.377593 182.003865 
L 222.175065 179.448619 
L 222.177082 181.310172 
L 219.662365 180.5397 
L 218.264459 181.81443 
L 210.743721 179.504726 
L 210.756352 181.35983 
L 208.262453 180.59195 
L 206.849205 181.862389 
L 209.346004 182.632987 
L 207.930657 183.910658 
L 205.430954 183.137327 
L 205.413326 181.279293 
L 202.916666 180.508888 
L 202.896698 178.648663 
L 204.320554 177.380656 
L 204.30191 175.519078 
L 200.011036 179.330263 
L 202.518142 180.103588 
L 199.637856 182.672608 
L 199.661071 184.546102 
L 201.102389 183.257166 
L 203.615502 184.03622 
L 206.476917 181.466559 
L 208.989574 182.241749 
L 209.00394 184.107926 
L 207.580086 185.395354 
L 207.516997 177.901065 
L 208.946315 176.622181 
L 211.471449 177.395159 
L 210.045105 178.676812 
L 210.018121 174.905842 
L 207.485274 174.13272 
L 206.048066 175.411846 
L 206.065328 177.299969 
L 207.501151 176.018667 
L 204.976151 175.245905 
L 206.409804 173.971942 
L 208.931841 174.741946 
L 208.91734 172.858171 
L 210.34429 171.588175 
L 210.357426 173.46978 
L 215.411929 175.009279 
L 216.82648 173.73616 
L 214.299484 172.968326 
L 214.290058 171.087576 
L 215.70389 169.823891 
L 215.711975 171.702476 
L 213.193387 170.93902 
L 213.182953 169.061742 
L 214.594721 167.805258 
L 214.585607 165.926631 
L 212.070701 165.170129 
L 210.65464 166.421748 
L 210.667437 168.301233 
L 205.652599 166.785109 
L 204.226984 168.037962 
L 206.734632 168.797904 
L 206.751092 170.67473 
L 208.172428 169.417024 
L 208.187502 171.288195 
L 209.602458 170.0328 
L 209.588729 168.163773 
L 211.000023 166.914953 
L 208.503434 166.161754 
L 208.532802 169.88948 
L 206.046125 169.13531 
L 207.455554 167.891943 
L 204.977028 167.14202 
L 204.959127 165.284578 
L 203.545498 166.523182 
L 206.029165 167.274463 
L 208.845737 164.796334 
L 208.860038 166.652939 
L 206.384367 165.905643 
L 206.367796 164.050319 
L 209.170358 161.594748 
L 209.156395 159.74024 
L 207.756254 160.963755 
L 202.817273 159.484229 
L 199.990851 161.933754 
L 199.968346 160.072012 
L 201.385379 158.847236 
L 201.364181 156.984193 
L 198.895203 156.246773 
L 197.473991 157.466811 
L 199.945799 158.206825 
L 199.923211 156.338184 
L 197.44914 155.599472 
L 197.424243 153.728676 
L 195.995296 154.948688 
L 196.047777 158.691143 
L 198.522421 159.433765 
L 194.222034 163.140661 
L 194.250068 165.014457 
L 196.73628 165.767904 
L 199.599788 163.282659 
L 204.576709 164.783741 
L 204.558303 162.910346 
L 199.576795 161.411873 
L 198.146202 162.650142 
L 198.121792 160.773709 
L 195.633867 160.025538 
L 197.0687 158.792077 
L 199.55376 159.537606 
L 200.980672 158.305867 
L 203.468178 159.050356 
L 203.487562 160.923768 
L 210.975167 163.170743 
L 210.987606 165.044591 
L 213.491858 165.798102 
L 213.481741 163.922948 
L 214.887786 162.680182 
L 217.396798 163.431334 
L 217.390322 161.553536 
L 214.878978 160.803696 
L 216.281374 159.567487 
L 216.273871 157.689677 
L 213.768511 156.945399 
L 215.170197 155.718355 
L 215.161675 153.840546 
L 216.559732 152.620002 
L 216.552509 150.740887 
L 217.946948 149.526824 
L 222.95471 150.996003 
L 221.566146 152.215262 
L 221.568723 154.097024 
L 222.955994 152.875576 
L 227.980521 154.353693 
L 227.990713 148.696495 
L 229.371008 147.48074 
L 229.380396 143.696104 
L 234.44409 145.161949 
L 233.067268 146.378471 
L 233.059102 148.277486 
L 235.599772 149.016749 
L 235.61033 147.11638 
L 234.231645 148.339877 
L 231.685536 147.599332 
L 231.692435 145.694507 
L 234.240945 146.433689 
L 234.268951 140.693564 
L 236.830237 141.430215 
L 242.323605 136.58799 
L 242.357373 132.758754 
L 237.2553 131.313449 
L 237.267411 129.396218 
L 234.722213 128.677288 
L 234.751472 122.90817 
L 237.303881 123.622892 
L 237.316083 121.691205 
L 239.87644 122.406056 
L 242.617534 120.048185 
L 242.60039 121.976608 
L 240.048618 121.265435 
L 240.033912 123.188839 
L 241.397712 122.014076 
L 241.365892 125.845491 
L 240.004584 127.024863 
L 237.46548 126.311028 
L 236.096284 127.492055 
L 236.085301 129.405602 
L 228.498647 127.261533 
L 229.875604 126.085797 
L 229.885916 122.268022 
L 228.506409 123.439183 
L 228.502524 125.352139 
L 225.731362 127.711563 
L 225.733973 123.872858 
L 223.202849 123.160342 
L 223.201785 121.236995 
L 221.801869 122.413518 
L 219.270829 121.701405 
L 219.266073 119.773528 
L 222.069551 117.434377 
L 219.547564 116.730239 
L 220.944817 115.569384 
L 223.463828 116.271027 
L 227.617132 112.805614 
L 227.614091 114.719559 
L 222.603852 113.329774 
L 225.357601 111.044945 
L 225.359485 107.228309 
L 227.860695 107.914815 
L 226.486637 109.053038 
L 231.510977 110.435301 
L 232.879112 109.292216 
L 232.887037 107.374394 
L 234.251606 106.237652 
L 234.270005 102.395984 
L 232.902931 103.528051 
L 235.427224 104.214718 
L 238.150569 101.94974 
L 235.632265 101.267904 
L 235.621812 103.18818 
L 230.605922 101.826033 
L 230.600139 103.739949 
L 233.103098 104.421702 
L 233.09501 106.333487 
L 231.733518 107.466141 
L 231.747216 103.634397 
L 226.736077 102.270356 
L 226.740517 98.430053 
L 224.238301 97.753031 
L 224.238394 99.673542 
L 225.612464 98.555021 
L 228.109436 99.231082 
L 228.112922 97.311495 
L 229.480512 96.196859 
L 226.98416 95.524575 
L 226.986601 93.6052 
L 225.614819 94.715128 
L 230.623335 96.063017 
L 230.629161 94.134888 
L 231.996312 93.022592 
L 229.490018 92.351724 
L 228.119912 93.461655 
L 225.615999 92.789854 
L 225.617182 90.861015 
L 228.123417 91.531384 
L 228.126928 89.59753 
L 225.618367 88.928601 
L 224.237929 90.035327 
L 224.238023 91.970122 
L 221.734183 91.298819 
L 221.736593 93.228594 
L 219.24039 92.557289 
L 217.851789 93.667945 
L 217.857792 95.595083 
L 220.627543 93.372956 
L 220.624118 91.45053 
L 218.136115 90.782997 
L 219.517889 89.68245 
L 219.522322 91.60111 
L 218.141828 92.704003 
L 215.661373 92.036464 
L 212.880069 94.24918 
L 212.858867 90.397047 
L 211.458251 91.504517 
L 211.422339 85.692347 
L 210.012789 86.796544 
L 207.514604 86.128212 
L 207.498943 84.182659 
L 205.003793 83.517214 
L 205.021755 85.461307 
L 202.534226 84.795825 
L 202.513972 82.85319 
L 203.933538 81.758451 
L 203.9146 79.814622 
L 198.952038 78.498396 
L 198.975527 80.439308 
L 191.577943 78.471084 
L 191.668343 84.259355 
L 190.238739 85.349649 
L 187.787227 84.689737 
L 187.820839 86.613 
L 190.677859 84.436104 
L 188.239242 83.780748 
L 188.305213 87.604504 
L 186.879179 88.693433 
L 184.44734 88.034349 
L 184.483782 89.941907 
L 182.059226 89.282806 
L 182.097775 91.185487 
L 183.526501 90.096508 
L 183.563613 91.993429 
L 184.986048 90.905923 
L 185.021739 92.79712 
L 187.434414 93.455818 
L 186.016019 94.54788 
L 188.436436 95.210241 
L 188.370944 91.414309 
L 185.946185 90.754718 
L 185.981134 92.653026 
L 187.400878 91.563245 
L 192.245709 92.882016 
L 192.274907 94.77735 
L 190.861925 95.873989 
L 190.831387 93.97637 
L 193.264152 94.640126 
L 194.675741 93.543475 
L 194.702757 95.440191 
L 196.108136 94.34505 
L 193.683011 93.684496 
L 195.086261 92.59541 
L 192.6689 91.938504 
L 192.64019 90.049104 
L 194.04263 88.968293 
L 194.097366 92.739142 
L 198.927397 94.052539 
L 198.950379 95.935581 
L 194.75664 99.223276 
L 194.783509 101.109664 
L 197.209896 101.77801 
L 197.357088 113.032835 
L 195.961433 114.154252 
L 203.239987 116.198988 
L 204.627458 115.070537 
L 204.645322 116.938458 
L 207.403405 114.688804 
L 204.98254 114.0115 
L 204.965061 112.149288 
L 200.134054 110.801528 
L 200.112221 108.938603 
L 197.702071 108.26814 
L 197.678048 106.403182 
L 196.286666 107.510224 
L 201.121696 108.854489 
L 203.888878 106.634999 
L 206.308497 107.304613 
L 206.292198 105.434488 
L 203.527908 107.654167 
L 203.490086 103.894833 
L 204.877187 102.787549 
L 200.024496 101.453175 
L 198.631922 102.555851 
L 198.655213 104.434518 
L 200.046487 103.32961 
L 202.468133 103.997451 
L 202.487916 105.871838 
L 200.068438 105.202653 
L 202.834116 102.999764 
L 202.814733 101.131153 
L 204.191754 100.037565 
L 201.783243 99.377929 
L 200.403525 100.469256 
L 200.381954 98.598617 
L 201.76295 97.509507 
L 201.722255 93.762559 
L 199.312287 93.10832 
L 199.26714 89.350559 
L 201.681413 90.002078 
L 204.439452 87.852878 
L 206.853314 88.50129 
L 206.83755 86.619106 
L 204.42153 85.972059 
L 201.660936 88.11674 
L 206.508895 89.421102 
L 206.444072 81.834457 
L 204.008826 81.187146 
L 205.393899 80.119892 
L 205.376711 78.21832 
L 207.811393 78.862002 
L 207.826389 80.764973 
L 209.203947 79.699172 
L 204.349517 78.414782 
L 205.727817 77.357052 
L 208.149775 77.996379 
L 208.164385 79.88991 
L 210.589201 80.531954 
L 211.956056 79.471168 
L 211.956056 79.471168 
" style="fill:none;stroke:#1f77b4;stroke-linecap:square;stroke-width:1.5;"/>
   </g>
  </g>
 </g>
 <defs>
  <clipPath id="pd68e0adc1d">
   <rect height="217.44" width="217.44" x="112.68" y="34.56"/>
  </clipPath>
 </defs>
</svg>
